<?xml version="1.0" encoding="UTF-8"?>
<svg xmlns="http://www.w3.org/2000/svg" viewBox="78 500.858 192 214" preserveAspectRatio="xMidYMid meet" overflow="hidden">
  <g transform="matrix(1 0 0 -1 0 1133.858)">
    <path d="M0 0 C-0.395 0.049 -0.778 0.177 -1.125 0.378 C-5.606 2.966 -12.906 7.257 -23.025 13.251 C-24.97 14.403 -26.383 15.01 -27.262 15.072 C-29.595 15.242 -31.015 14.979 -33.223 13.689 C-34.118 13.166 -36.114 11.98 -39.212 10.129 C-60.826 -2.762 -78.844 -13.656 -97.046 -24.703 C-101.171 -27.208 -104.212 -28.743 -106.17 -29.309 C-110.796 -30.643 -115.405 -30.663 -119.997 -29.369 C-121.614 -28.914 -124.11 -27.711 -127.485 -25.759 C-133.368 -22.359 -139.168 -18.957 -144.885 -15.551 C-149.661 -12.708 -154.235 -9.985 -158.605 -7.381 C-161.316 -5.771 -163.242 -4.403 -164.382 -3.278 C-167.945 0.22 -170.33 4.451 -171.538 9.415 C-172.023 11.413 -172.249 14.648 -172.216 19.12 C-172.157 26.595 -172.152 60.892 -172.202 122.012 C-172.205 124.92 -172.04 127.185 -171.708 128.808 C-170.63 134.094 -168.277 138.554 -164.65 142.187 C-163.128 143.706 -160.743 145.393 -157.494 147.25 C-152.778 149.942 -148.679 152.229 -144.285 154.76 C-136.558 159.211 -130.214 162.858 -125.253 165.701 C-121.74 167.717 -118.998 169.016 -117.028 169.597 C-111.537 171.22 -106.544 170.676 -101.237 168.896 C-100.063 168.503 -98.031 167.447 -95.142 165.729 C-77.802 155.429 -68.272 149.652 -58.161 143.663 C-57.233 143.113 -44.324 135.409 -19.433 120.55 C-14.906 117.846 -12.049 115.883 -10.862 114.663 C-5.445 109.103 -3.449 100.771 -5.837 93.289 C-7.927 86.742 -12.032 82.091 -18.151 79.337 C-23.829 76.783 -29.539 76.931 -35.284 79.78 C-36.397 80.33 -38.74 81.692 -42.315 83.865 C-46.783 86.58 -53.449 90.361 -56.727 92.339 C-79.165 105.869 -102.064 119.536 -125.424 133.34 C-126.558 134.013 -127.386 134.402 -127.909 134.506 C-131.897 135.309 -134.414 133.114 -134.414 129.043 C-134.417 118.101 -134.423 76.144 -134.433 3.172 C-134.433 -1.213 -130.089 -2.859 -126.549 -0.821 C-125.408 -0.163 -119.39 3.154 -108.494 9.129 C-89.059 19.785 -71.413 29.569 -55.556 38.479 C-52.203 40.366 -49.907 41.654 -48.668 42.343 C-40.425 46.919 -24.843 55.69 -1.923 68.655 C-0.037 69.724 2.112 69.996 3.711 68.42 C4.578 67.565 5.012 66.603 5.012 65.533 C4.996 35.092 5.002 15.536 5.03 6.865 C5.035 5.496 5.118 3.804 4.717 2.633 C4.013 0.567 2.441 -0.31 0 0 Z" fill="#FFA131" transform="matrix(1 0 0 1 255.6464 455.5873)"/>
    <path d="M0 0 C-10.489 -5.961 -25.422 -14.445 -39.143 -22.093 C-40.637 -22.926 -41.794 -23.331 -42.615 -23.306 C-44.001 -23.269 -45.2 -22.696 -46.211 -21.586 C-47.474 -20.199 -47.34 -18.055 -47.336 -15.837 C-47.305 1.262 -47.301 26.503 -47.322 59.886 C-47.327 63.182 -44.846 65.354 -41.554 64.874 C-41.016 64.797 -40.308 64.521 -39.429 64.044 C-38.178 63.368 -33.75 60.779 -26.146 56.276 C-5.651 44.141 5.296 37.645 6.694 36.787 C9.956 34.783 12.662 33.18 14.813 31.978 C18.53 29.904 22.259 27.46 26.4 25.178 C28.668 23.924 29.751 22.054 29.65 19.567 C29.544 17.059 28.078 15.994 25.828 14.703 C14.007 7.935 7.268 4.093 5.611 3.177 C5.03 2.854 3.16 1.795 0 0 Z" fill="#00A6FC" transform="matrix(1 0 0 1 181.7449 500.0739)"/>
  </g>
</svg>
