<?xml version="1.0" encoding="UTF-8"?>
<svg xmlns="http://www.w3.org/2000/svg" viewBox="83.4276 506.4179999999999 939.7024 203.46500000000003" preserveAspectRatio="xMidYMid meet">
  <g transform="matrix(1 0 0 -1 0 1133.858)">
    <path d="M0 0 C0.458 0.65 0.958 1.63 1.5 2.94 C4.563 10.391 6.882 17.819 8.458 25.226 C8.515 25.481 8.355 25.733 8.1 25.791 C8.065 25.798 8.029 25.802 7.992 25.802 L-20.749 25.802 C-21.02 25.803 -21.262 25.635 -21.355 25.381 C-24.379 16.906 -28.345 9.147 -33.255 2.105 C-33.55 1.678 -34.116 1.536 -34.577 1.773 C-38.241 3.671 -41.669 8.318 -43.929 11.627 C-44.181 12.001 -44.192 12.485 -43.959 12.868 C-39.135 20.712 -35.139 29.289 -32.679 38.478 C-31.344 43.476 -30.478 46.903 -30.079 48.76 C-30.044 48.936 -29.889 49.063 -29.71 49.063 L-14.958 49.063 C-14.713 49.063 -14.515 48.864 -14.516 48.619 C-14.516 48.582 -14.52 48.545 -14.53 48.509 L-16.716 39.962 C-16.773 39.745 -16.644 39.523 -16.427 39.466 C-16.393 39.457 -16.359 39.453 -16.325 39.453 C-7.692 39.438 2.199 39.47 13.348 39.549 C20.749 39.603 24.495 35.951 24.583 28.594 C24.603 26.831 24.177 24.174 23.305 20.624 C15.268 -12.188 -4.041 -42.622 -36.247 -55.969 C-36.601 -56.119 -37.012 -55.96 -37.178 -55.608 L-42.865 -43.353 C-42.986 -43.094 -42.875 -42.786 -42.616 -42.665 C-42.599 -42.657 -42.581 -42.65 -42.563 -42.644 C-35.895 -40.344 -29.988 -37.015 -24.842 -32.657 C-24.667 -32.51 -24.644 -32.249 -24.791 -32.074 C-24.802 -32.061 -24.814 -32.048 -24.827 -32.036 L-39.948 -17.906 C-40.28 -17.594 -40.306 -17.077 -40.007 -16.738 L-32.332 -8.059 C-32.191 -7.9 -31.949 -7.885 -31.79 -8.025 C-31.788 -8.027 -31.787 -8.028 -31.785 -8.029 L-15.18 -22.707 C-15.045 -22.826 -14.84 -22.814 -14.721 -22.679 C-14.716 -22.674 -14.711 -22.668 -14.707 -22.663 L-6.936 -12.69 C-6.695 -12.382 -6.75 -11.936 -7.059 -11.695 C-7.06 -11.695 -7.061 -11.694 -7.062 -11.693 L-24.975 2.26 C-25.139 2.392 -25.183 2.624 -25.078 2.807 L-19.42 12.609 C-19.168 13.039 -18.616 13.183 -18.187 12.931 C-18.161 12.916 -18.136 12.9 -18.112 12.883 L-0.473 -0.081 C-0.325 -0.19 -0.115 -0.156 -0.004 -0.005 Z Z" fill="#040000" transform="matrix(1 0 0 1 567.9252 578.3251)"/>
    <path d="M0 0 C1.926 -9.943 5.262 -19.314 10.009 -28.114 C15.372 -38.071 22.709 -46.241 32.022 -52.623 C32.275 -52.794 32.344 -53.138 32.177 -53.399 L24.827 -64.782 C24.507 -65.277 23.845 -65.422 23.342 -65.107 C21.998 -64.26 21.161 -63.701 20.831 -63.43 C7.441 -52.503 -2.27 -38.913 -8.303 -22.663 C-8.359 -22.501 -8.536 -22.415 -8.697 -22.471 C-8.785 -22.501 -8.854 -22.569 -8.886 -22.655 C-15.46 -39.032 -26.511 -52.727 -40.406 -63.467 C-41.361 -64.201 -42.196 -64.779 -42.91 -65.203 C-43.357 -65.472 -43.939 -65.334 -44.224 -64.893 L-51.523 -53.62 C-51.699 -53.346 -51.623 -52.983 -51.353 -52.808 C-39.992 -45.416 -31.295 -35.663 -25.263 -23.549 C-21.651 -16.303 -19.331 -8.118 -17.809 -0.192 C-17.752 0.1 -17.946 0.384 -18.243 0.441 C-18.278 0.447 -18.313 0.451 -18.349 0.451 L-41.314 0.451 C-41.596 0.451 -41.824 0.679 -41.824 0.96 L-41.824 13.414 C-41.824 13.578 -41.692 13.71 -41.528 13.71 L-16.871 13.71 C-16.561 13.71 -16.31 13.964 -16.31 14.279 L-16.31 36.638 C-16.31 36.871 -16.121 37.059 -15.889 37.059 L-1.389 37.059 C-1.193 37.059 -1.034 36.901 -1.034 36.705 L-1.034 14.042 C-1.034 13.855 -0.882 13.702 -0.694 13.702 L-0.694 13.702 L30.064 13.702 C30.407 13.703 30.685 13.425 30.685 13.082 L30.685 13.082 L30.685 0.894 C30.685 0.637 30.476 0.428 30.219 0.428 L0.347 0.428 C0.151 0.429 -0.007 0.267 -0.006 0.067 C-0.006 0.044 -0.004 0.022 0 0 Z" fill="#040000" transform="matrix(1 0 0 1 638.5205 590.3803)"/>
    <path d="M0 0 L-5.274 -15.49 C-5.356 -15.725 -5.231 -15.982 -4.996 -16.063 C-4.948 -16.08 -4.897 -16.089 -4.846 -16.088 L18.844 -16.088 C19.092 -16.088 19.294 -16.29 19.294 -16.539 L19.294 -29.421 C19.294 -29.67 19.092 -29.872 18.844 -29.872 L-25.765 -29.872 C-26.014 -29.874 -26.217 -29.673 -26.218 -29.424 C-26.219 -29.373 -26.21 -29.322 -26.193 -29.274 L-16.14 0.295 C-16.077 0.478 -15.905 0.599 -15.712 0.598 L-0.428 0.598 C-0.18 0.6 0.023 0.399 0.025 0.15 C0.025 0.099 0.017 0.048 0 0 Z" fill="#040000" transform="matrix(1 0 0 1 898.6306 626.7601)"/>
    <path d="M0 0 L2.312 -7.8 C2.361 -7.959 2.508 -8.067 2.674 -8.066 L37.591 -8.066 C37.799 -8.066 37.968 -8.235 37.968 -8.443 L37.968 -19.789 C37.968 -19.997 37.799 -20.166 37.591 -20.166 L-48.996 -20.166 C-49.204 -20.166 -49.373 -19.997 -49.373 -19.789 L-49.373 -8.443 C-49.373 -8.235 -49.204 -8.066 -48.996 -8.066 L-14.116 -8.066 C-13.908 -8.067 -13.739 -7.9 -13.737 -7.691 C-13.737 -7.653 -13.743 -7.615 -13.754 -7.579 L-15.948 -0.222 C-16.009 -0.023 -15.898 0.188 -15.699 0.249 C-15.662 0.26 -15.624 0.266 -15.586 0.266 L-0.362 0.266 C-0.196 0.267 -0.049 0.159 0 0 Z" fill="#040000" transform="matrix(1 0 0 1 977.6467 627.1073)"/>
    <path d="M0 0 C0.001 -0.22 -0.177 -0.4 -0.397 -0.401 C-0.451 -0.401 -0.504 -0.39 -0.554 -0.369 L-29.983 12.122 C-30.202 12.216 -30.344 12.428 -30.345 12.661 L-30.345 24.864 C-30.345 25.091 -30.235 25.305 -30.049 25.44 C-27.959 26.94 -25.196 25.802 -23.025 24.834 C-20.838 23.864 -13.348 20.634 -0.554 15.143 C-0.219 15 0 14.666 0 14.293 Z Z" fill="#040000" transform="matrix(1 0 0 1 733.5291 600.8695)"/>
    <path d="M0 0 C0 0.604 -0.489 1.093 -1.093 1.093 L-55.711 1.093 C-56.315 1.093 -56.804 0.604 -56.804 0 L-56.804 -3.029 C-56.804 -3.632 -56.315 -4.122 -55.711 -4.122 L-1.093 -4.122 C-0.489 -4.122 0 -3.632 0 -3.029 Z M0.022 16.088 C0.022 16.704 -0.477 17.204 -1.093 17.204 L-55.608 17.204 C-56.224 17.204 -56.723 16.704 -56.723 16.088 L-56.723 12.86 C-56.723 12.244 -56.224 11.745 -55.608 11.745 L-1.093 11.745 C-0.477 11.745 0.022 12.244 0.022 12.86 Z M15.336 -5.446 C15.327 -10.995 10.821 -15.484 5.273 -15.475 L-61.902 -15.358 C-67.451 -15.348 -71.94 -10.842 -71.931 -5.294 L-71.931 -5.294 L-71.889 18.521 C-71.88 24.069 -67.374 28.559 -61.826 28.549 L5.349 28.432 C10.898 28.422 15.387 23.917 15.378 18.369 Z Z" fill="#040000" transform="matrix(1 0 0 1 821.6235 598.0404)"/>
    <path d="M0 0 C1.32 -0.039 13.222 -0.027 35.708 0.037 C38.411 0.044 39.652 0.62 39.637 3.383 C39.618 9.509 39.595 13.03 39.571 13.946 C39.563 14.197 39.357 14.397 39.106 14.397 L0.089 14.397 C-0.172 14.397 -0.384 14.182 -0.384 13.917 L-0.384 0.399 C-0.384 0.181 -0.213 0.004 0 0 M-16.753 14.382 L-54.367 14.382 C-54.66 14.382 -54.898 14.144 -54.898 13.85 C-54.898 13.848 -54.898 13.845 -54.898 13.843 C-54.824 10.204 -54.827 6.692 -54.906 3.309 C-54.96 1.123 -53.82 0.025 -51.486 0.015 C-37.446 -0.034 -25.817 -0.032 -16.598 0.022 C-16.307 0.026 -16.074 0.263 -16.074 0.554 L-16.074 13.71 C-16.074 14.081 -16.378 14.382 -16.753 14.382 M39.194 28.18 C39.412 28.18 39.589 28.355 39.593 28.572 C39.672 32.162 39.667 35.964 39.578 39.977 C39.549 41.45 38.689 42.188 37 42.193 C23.315 42.237 10.982 42.213 0 42.119 C-0.22 42.119 -0.399 41.941 -0.399 41.72 L-0.399 28.875 C-0.399 28.491 -0.091 28.18 0.288 28.18 Z M-16.059 28.816 L-16.088 41.624 C-16.092 41.956 -16.362 42.223 -16.694 42.223 L-53.111 42.164 C-54.09 42.16 -54.88 41.704 -54.876 41.145 L-54.876 41.144 L-54.861 29.148 C-54.856 28.59 -54.06 28.14 -53.081 28.144 L-16.665 28.203 C-16.33 28.203 -16.059 28.474 -16.059 28.808 C-16.059 28.811 -16.059 28.813 -16.059 28.816 M-45.547 -39.763 C-45.465 -39.617 -45.517 -39.432 -45.663 -39.351 C-45.709 -39.325 -45.76 -39.312 -45.813 -39.312 L-79.555 -39.312 C-79.89 -39.312 -80.161 -39.041 -80.161 -38.707 L-80.161 -25.795 C-80.161 -25.546 -79.959 -25.344 -79.711 -25.344 L-16.628 -25.344 C-16.318 -25.344 -16.066 -25.093 -16.066 -24.783 L-16.066 -24.783 L-16.066 -14.197 C-16.066 -13.908 -16.301 -13.673 -16.591 -13.673 C-28.001 -13.722 -41.969 -13.727 -58.496 -13.688 C-59.909 -13.683 -61.428 -13.313 -63.053 -12.58 C-68.244 -10.231 -70.849 -6.005 -70.869 0.096 C-70.952 24.571 -70.952 39.273 -70.869 44.202 C-70.78 49.742 -67.183 53.997 -61.953 55.873 C-60.539 56.386 -58.309 56.644 -55.26 56.649 C-30.534 56.684 0.638 56.684 38.256 56.649 C42.836 56.644 45.884 56.304 47.401 55.63 C50.715 54.152 53.057 51.762 54.426 48.457 C55.017 47.039 55.312 43.675 55.312 38.367 C55.317 17.91 55.287 4.659 55.223 -1.389 C55.142 -8.532 49.321 -13.754 42.156 -13.732 C26.851 -13.673 12.777 -13.675 -0.066 -13.739 C-0.258 -13.739 -0.414 -13.895 -0.414 -14.087 L-0.414 -24.842 C-0.414 -25.119 -0.189 -25.344 0.089 -25.344 L64.11 -25.344 C64.354 -25.344 64.553 -25.542 64.553 -25.787 L64.553 -38.832 C64.553 -39.106 64.331 -39.327 64.058 -39.327 L29.857 -39.327 C29.657 -39.33 29.498 -39.494 29.501 -39.694 C29.502 -39.755 29.517 -39.814 29.547 -39.866 C34.688 -48.794 41.169 -56.624 48.989 -63.356 C53.68 -67.397 58.097 -70.049 63.74 -73.062 C63.983 -73.189 64.074 -73.491 63.945 -73.737 C63.939 -73.749 63.932 -73.76 63.925 -73.772 L55.851 -86.255 C55.689 -86.507 55.358 -86.586 55.105 -86.432 C36.801 -75.648 22.131 -58.902 12.55 -39.955 C12.36 -39.579 11.974 -39.341 11.553 -39.342 L0.103 -39.342 C-0.186 -39.342 -0.421 -39.577 -0.421 -39.866 L-0.421 -85.332 C-0.421 -85.642 -0.672 -85.893 -0.982 -85.893 L-14.988 -85.893 C-15.587 -85.893 -16.074 -85.407 -16.074 -84.807 L-16.074 -84.807 L-16.074 -39.785 C-16.074 -39.512 -16.292 -39.29 -16.561 -39.29 L-27.449 -39.29 C-27.87 -39.291 -28.254 -39.528 -28.439 -39.903 C-37.761 -58.614 -52.165 -75.847 -70.344 -86.196 C-70.736 -86.416 -71.231 -86.293 -71.474 -85.915 L-79.504 -73.513 C-79.584 -73.39 -79.547 -73.224 -79.421 -73.141 C-79.414 -73.137 -79.407 -73.133 -79.4 -73.129 C-64.765 -65.461 -53.48 -54.339 -45.547 -39.763 Z" fill="#040000" transform="matrix(1 0 0 1 431.0781 569.7195)"/>
    <path d="M0 0 L12.521 0 C12.754 0 12.962 -0.144 13.045 -0.362 L18.622 -15.062 C18.732 -15.351 18.587 -15.676 18.297 -15.786 C18.233 -15.81 18.166 -15.822 18.098 -15.822 L5.57 -15.822 C5.337 -15.822 5.128 -15.678 5.045 -15.461 L-0.524 -0.761 C-0.635 -0.471 -0.489 -0.147 -0.199 -0.037 C-0.136 -0.012 -0.068 0 0 0 Z" fill="#040000" transform="matrix(1 0 0 1 648.0051 623.4878)"/>
    <path d="M0 0 L3.93 -10.371 C3.992 -10.533 4.148 -10.639 4.321 -10.637 L31.63 -10.637 C31.799 -10.637 31.951 -10.535 32.014 -10.378 L36.151 0.03 C36.214 0.186 36.366 0.288 36.535 0.288 L51.545 0.288 C51.773 0.288 51.959 0.104 51.959 -0.125 C51.959 -0.178 51.949 -0.231 51.929 -0.281 L48.036 -10.068 C47.95 -10.28 48.053 -10.521 48.265 -10.607 C48.314 -10.627 48.367 -10.637 48.42 -10.637 L66.931 -10.637 C67.16 -10.637 67.345 -10.822 67.345 -11.051 L67.345 -11.051 L67.345 -23.113 C67.345 -23.342 67.16 -23.527 66.931 -23.527 L-29.695 -23.527 C-29.923 -23.527 -30.108 -23.342 -30.108 -23.113 L-30.108 -23.113 L-30.108 -11.058 C-30.108 -10.83 -29.923 -10.644 -29.695 -10.644 L-12.232 -10.644 C-12.004 -10.643 -11.82 -10.457 -11.821 -10.228 C-11.821 -10.179 -11.831 -10.129 -11.848 -10.083 L-15.564 -0.295 C-15.645 -0.082 -15.539 0.157 -15.325 0.239 C-15.279 0.256 -15.229 0.266 -15.18 0.266 L-0.392 0.266 C-0.218 0.268 -0.062 0.162 0 0 Z" fill="#040000" transform="matrix(1 0 0 1 953.2704 602.5685)"/>
    <path d="M0 0 C0.003 -0.216 -0.17 -0.394 -0.386 -0.397 C-0.449 -0.398 -0.512 -0.383 -0.569 -0.355 C-10.201 4.457 -20.25 9.034 -30.714 13.377 C-30.923 13.462 -31.061 13.666 -31.061 13.895 L-31.061 26.282 C-31.061 26.563 -30.876 26.813 -30.603 26.903 C-28.944 27.43 -27.07 27.247 -24.982 26.356 C-10.622 20.25 -2.46 16.825 -0.495 16.081 C-0.197 15.965 -0.001 15.681 0 15.365 Z Z" fill="#040000" transform="matrix(1 0 0 1 733.3296 561.3799)"/>
    <path d="M0 0 L0 -13.148 C-0.001 -13.457 -0.194 -13.73 -0.48 -13.828 C-4.247 -15.148 -7.623 -16.357 -10.607 -17.455 C-14.828 -19.016 -17.965 -20.008 -20.018 -20.432 C-25.543 -21.577 -29.665 -17.935 -31.202 -12.919 C-31.532 -11.851 -31.694 -10.268 -31.689 -8.17 C-31.674 13.616 -31.697 26.644 -31.756 30.914 C-31.76 31.188 -31.983 31.409 -32.258 31.409 L-45.192 31.409 C-45.457 31.409 -45.672 31.627 -45.672 31.896 L-45.672 31.896 L-45.672 44.513 C-45.672 44.778 -45.457 44.993 -45.192 44.993 L-32.273 44.993 C-31.963 44.993 -31.711 45.244 -31.711 45.554 L-31.711 65.033 C-31.711 65.319 -31.943 65.55 -32.228 65.55 L-32.228 65.55 L-43.434 65.55 C-43.716 65.55 -43.944 65.778 -43.944 66.06 L-43.944 66.06 L-43.944 78.447 C-43.944 78.721 -43.722 78.942 -43.449 78.942 L-1.211 78.942 C-0.975 78.942 -0.783 78.751 -0.783 78.514 L-0.783 78.514 L-0.783 65.979 C-0.783 65.713 -0.998 65.498 -1.263 65.498 L-15.497 65.498 C-15.722 65.498 -15.904 65.32 -15.904 65.1 L-15.904 65.099 L-15.904 45.724 C-15.904 45.3 -15.56 44.956 -15.135 44.956 L-0.694 44.956 C-0.437 44.956 -0.229 44.744 -0.229 44.483 L-0.229 32.007 C-0.229 31.689 -0.484 31.431 -0.798 31.431 L-15.409 31.431 C-15.707 31.431 -15.948 31.189 -15.948 30.891 L-15.948 -2.356 C-15.946 -3.115 -15.328 -3.728 -14.57 -3.726 C-14.441 -3.726 -14.313 -3.707 -14.19 -3.671 L-0.524 0.391 C-0.31 0.457 -0.083 0.336 -0.018 0.121 C-0.006 0.082 0 0.041 0 0 Z" fill="#040000" transform="matrix(1 0 0 1 918.0872 505.0115)"/>
    <path d="M0 0 L0.015 -10.992 C0.015 -11.232 0.21 -11.427 0.451 -11.427 L12.535 -11.405 C13.804 -11.406 14.833 -10.298 14.833 -8.931 L14.833 -8.923 L14.818 -2.009 C14.814 -0.646 13.786 0.458 12.521 0.458 L0.436 0.436 C0.195 0.436 0 0.241 0 0 M-14.168 -0.081 C-14.168 0.212 -14.406 0.451 -14.7 0.451 L-28.129 0.451 C-28.423 0.451 -28.661 0.213 -28.661 -0.081 L-28.661 -0.081 L-28.661 -10.895 C-28.661 -11.189 -28.423 -11.427 -28.129 -11.427 L-28.129 -11.427 L-14.7 -11.427 C-14.406 -11.427 -14.168 -11.189 -14.168 -10.895 Z M-43.072 -10.94 L-43.072 -0.052 C-43.072 0.234 -43.304 0.465 -43.589 0.465 L-43.589 0.465 L-54.884 0.465 C-56.144 0.465 -57.166 -0.547 -57.166 -1.795 L-57.166 -9.197 C-57.166 -10.445 -56.144 -11.457 -54.884 -11.457 L-43.589 -11.457 C-43.304 -11.457 -43.072 -11.225 -43.072 -10.94 Z M29.598 -13.488 C29.607 -18.735 25.361 -22.995 20.115 -23.004 L20.115 -23.004 L-62.292 -23.148 C-67.538 -23.157 -71.798 -18.912 -71.808 -13.665 L-71.835 2.128 C-71.844 7.374 -67.599 11.634 -62.352 11.643 L20.054 11.787 C25.301 11.796 29.561 7.551 29.57 2.305 Z Z" fill="#040000" transform="matrix(1 0 0 1 814.4141 564.5784)"/>
    <path d="M0 0 L-52.402 0 C-52.704 0 -52.948 -0.245 -52.948 -0.547 L-52.948 -6.678 C-52.948 -8.375 -51.47 -9.75 -49.646 -9.75 L-2.755 -9.75 C-0.932 -9.75 0.547 -8.375 0.547 -6.678 L0.547 -0.547 C0.547 -0.245 0.302 0 0 0 M-52.357 11.863 L0 11.863 C0.294 11.863 0.532 12.101 0.532 12.395 L0.532 18.467 C0.532 20.091 -0.857 21.407 -2.571 21.407 L-49.787 21.407 C-51.5 21.407 -52.889 20.091 -52.889 18.467 L-52.889 12.395 C-52.889 12.101 -52.651 11.863 -52.357 11.863 M-71.474 -55.563 C-71.65 -55.563 -71.792 -55.421 -71.792 -55.246 C-71.792 -55.179 -71.771 -55.115 -71.733 -55.061 C-70.758 -53.665 -69.908 -52.298 -69.029 -51.205 C-63.903 -44.838 -59.51 -38.389 -55.851 -31.859 C-54.236 -28.978 -52.867 -25.827 -51.744 -22.404 C-51.679 -22.202 -51.789 -21.986 -51.99 -21.92 C-52.037 -21.904 -52.087 -21.898 -52.136 -21.902 C-58.474 -22.301 -64.797 -21.976 -67.67 -15.638 C-68.424 -13.973 -68.791 -11.019 -68.771 -6.774 C-68.712 8.463 -68.692 16.337 -68.712 16.849 C-68.894 21.833 -68.544 25.177 -67.663 26.88 C-66.254 29.614 -64.147 31.502 -61.34 32.546 C-60.182 32.975 -57.331 33.176 -52.786 33.152 C-42.69 33.098 -23.18 33.093 5.747 33.137 C11.184 33.144 16.295 28.262 16.325 22.892 C16.369 16.431 16.384 6.321 16.369 -7.438 C16.364 -11.255 16.113 -13.789 15.616 -15.039 C12.757 -22.256 5.363 -22.079 -1.182 -21.843 C-1.353 -21.834 -1.498 -21.967 -1.507 -22.138 C-1.507 -22.14 -1.507 -22.143 -1.507 -22.146 C-1.591 -28.537 -1.598 -33.972 -1.529 -38.448 C-1.485 -41.299 0.502 -41.669 3.139 -41.654 C14.397 -41.59 20.784 -41.583 22.301 -41.632 C24.199 -41.698 24.664 -43.117 24.524 -44.86 C24.164 -49.42 23.778 -52.234 23.364 -53.303 C22.788 -54.8 21.527 -55.561 19.582 -55.585 C13.495 -55.679 5.067 -55.691 -5.703 -55.622 C-12.831 -55.571 -17.233 -49.41 -17.204 -42.681 C-17.159 -32.994 -17.167 -26.159 -17.226 -22.175 C-17.226 -22 -17.371 -21.857 -17.551 -21.857 L-35.25 -21.857 C-35.471 -21.857 -35.665 -22.005 -35.722 -22.219 C-36.87 -26.341 -38.613 -30.699 -40.952 -35.294 C-44.577 -42.415 -49.036 -48.922 -54.33 -54.817 C-54.896 -55.447 -55.674 -55.748 -56.664 -55.718 C-57.772 -55.689 -62.709 -55.637 -71.474 -55.563 Z" fill="#040000" transform="matrix(1 0 0 1 997.1256 539.5225)"/>
    <path d="M0 0 C-0.241 0.002 -0.434 0.199 -0.432 0.44 C-0.432 0.489 -0.423 0.537 -0.406 0.584 C-0.096 1.465 1.879 7.729 5.518 19.375 C9.95 33.573 13.946 47.714 17.507 61.798 C17.581 62.098 17.848 62.31 18.157 62.315 C19.777 62.344 23.938 62.364 30.64 62.374 C33.809 62.381 32.494 58.614 32.044 56.952 C26.863 38.047 21.414 19.181 15.697 0.355 C15.632 0.145 15.441 0.001 15.224 0 Z Z" fill="#040000" transform="matrix(1 0 0 1 701.9359 483.8558)"/>
    <path d="M0 0 C0 0.245 0.198 0.443 0.443 0.443 C7.81 0.468 34.154 0.473 79.474 0.458 C84.601 0.458 88.929 -0.059 91.204 -4.366 C94.034 -9.721 91.337 -13.621 87.437 -17.499 C81.242 -23.645 74.234 -28.68 66.414 -32.605 C66.282 -32.677 66.23 -32.841 66.297 -32.972 C66.333 -33.042 66.397 -33.091 66.473 -33.107 C72.417 -34.339 77.699 -35.178 82.318 -35.626 C87.528 -36.129 92.172 -36.587 96.25 -37 C98.466 -37.227 99.404 -38.524 99.064 -40.893 C98.719 -43.291 98.044 -46.473 97.04 -50.437 C96.962 -50.748 96.673 -50.959 96.353 -50.939 C79.575 -49.846 63.253 -46.793 47.386 -41.78 C46.762 -41.583 46.095 -41.588 45.48 -41.794 C29.643 -47.068 13.168 -50.129 -3.945 -50.976 C-4.218 -50.99 -4.459 -50.804 -4.513 -50.54 L-6.892 -39.541 C-6.934 -39.327 -6.892 -39.103 -6.774 -38.913 C-6.158 -37.933 -5.232 -37.414 -3.996 -37.355 C6.35 -36.867 16.561 -35.592 26.637 -33.529 C26.824 -33.489 26.944 -33.305 26.905 -33.117 C26.885 -33.024 26.828 -32.943 26.747 -32.893 C19.105 -28.245 11.935 -22.884 5.237 -16.812 C5.103 -16.694 5.09 -16.488 5.208 -16.354 C5.272 -16.282 5.363 -16.242 5.459 -16.243 L24.177 -16.243 C24.331 -16.244 24.48 -16.29 24.605 -16.376 C31.145 -20.818 38.15 -24.519 45.621 -27.479 C46.045 -27.645 46.515 -27.651 46.943 -27.494 C56.427 -23.963 64.856 -18.984 72.228 -12.557 C72.415 -12.4 72.44 -12.121 72.283 -11.933 C72.198 -11.832 72.072 -11.773 71.94 -11.774 L0.384 -11.774 C0.172 -11.774 0 -11.606 0 -11.398 Z Z" fill="#040000" transform="matrix(1 0 0 1 747.1724 534.3148)"/>
    <path d="M0 0 L15.512 0 C15.615 0.002 15.709 -0.06 15.749 -0.155 L29.628 -33.551 C29.681 -33.679 29.62 -33.826 29.492 -33.879 C29.463 -33.891 29.431 -33.897 29.399 -33.898 L13.887 -33.898 C13.784 -33.9 13.69 -33.838 13.651 -33.743 L-0.229 -0.347 C-0.282 -0.219 -0.221 -0.072 -0.093 -0.019 C-0.063 -0.007 -0.032 0 0 0 Z" fill="#040000" transform="matrix(1 0 0 1 640.3672 517.7537)"/>
    <path d="M0 0 L15.409 0 C15.637 0.002 15.824 -0.181 15.826 -0.41 C15.827 -0.467 15.815 -0.524 15.793 -0.576 L1.795 -33.543 C1.73 -33.694 1.583 -33.793 1.418 -33.794 L-13.983 -33.794 C-14.212 -33.796 -14.398 -33.613 -14.401 -33.384 C-14.401 -33.327 -14.39 -33.271 -14.367 -33.218 L-0.377 -0.251 C-0.312 -0.1 -0.164 -0.001 0 0 Z" fill="#040000" transform="matrix(1 0 0 1 540.4982 517.6724)"/>
    <path d="M0 0 L15.431 0 C15.585 0.001 15.723 -0.093 15.778 -0.236 L28.358 -33.41 C28.431 -33.601 28.336 -33.814 28.146 -33.888 C28.105 -33.904 28.062 -33.912 28.018 -33.913 L12.594 -33.913 C12.441 -33.914 12.303 -33.82 12.247 -33.676 L-0.34 -0.502 C-0.413 -0.312 -0.318 -0.098 -0.128 -0.025 C-0.087 -0.009 -0.044 -0.001 0 0 Z" fill="#040000" transform="matrix(1 0 0 1 567.8145 517.7833)"/>
    <path d="M0 0 L15.291 0 C15.425 0.002 15.547 -0.081 15.593 -0.207 L28.195 -33.418 C28.256 -33.582 28.173 -33.765 28.008 -33.826 C27.974 -33.839 27.937 -33.846 27.9 -33.846 L12.609 -33.846 C12.475 -33.848 12.353 -33.765 12.306 -33.639 L-0.295 -0.428 C-0.357 -0.264 -0.273 -0.081 -0.109 -0.02 C-0.074 -0.007 -0.037 0 0 0 Z" fill="#040000" transform="matrix(1 0 0 1 604.6375 517.7315)"/>
    <path d="M0 0 L0 3.324 C0 3.81 0.393 4.203 0.879 4.203 L12.609 4.203 C12.907 4.203 13.148 3.965 13.148 3.671 L13.148 3.671 L13.148 -7.557 C13.148 -7.822 13.023 -8.073 12.809 -8.236 C0.502 -17.603 -18.127 -11.545 -14.877 6.426 C-13.597 13.498 -9.344 17.455 -2.12 18.297 C4.004 19.006 10.578 16.834 12.617 10.519 C12.721 10.197 12.544 9.851 12.222 9.747 C12.218 9.746 12.214 9.744 12.21 9.743 L7.896 8.458 C7.549 8.356 7.178 8.518 7.017 8.842 C6.003 10.871 4.843 12.132 3.538 12.624 C-1.559 14.552 -7.239 12.484 -8.783 6.825 C-10.157 1.765 -8.761 -5.902 -2.711 -7.261 C0.436 -7.97 3.654 -7.323 6.944 -5.318 C7.229 -5.143 7.402 -4.83 7.402 -4.491 L7.402 -1.174 C7.402 -0.905 7.18 -0.687 6.907 -0.687 L0.68 -0.687 C0.304 -0.687 0 -0.379 0 0 Z Z" fill="#040000" transform="matrix(1 0 0 1 1009.986 436.5806)"/>
    <path d="M0 0 L-0.022 3.324 C-0.026 3.809 0.364 4.206 0.849 4.21 L0.849 4.21 L12.587 4.299 C12.882 4.299 13.122 4.066 13.126 3.775 L13.208 -7.461 C13.209 -7.725 13.086 -7.976 12.875 -8.14 C0.635 -17.603 -18.053 -11.686 -14.936 6.323 C-13.705 13.405 -9.48 17.393 -2.26 18.29 C3.863 19.05 10.46 16.923 12.543 10.622 C12.652 10.302 12.48 9.953 12.16 9.844 C12.154 9.842 12.149 9.841 12.144 9.839 L7.837 8.524 C7.492 8.421 7.122 8.579 6.958 8.901 C5.924 10.925 4.752 12.178 3.442 12.661 C-1.669 14.552 -7.335 12.439 -8.842 6.766 C-10.179 1.692 -8.724 -5.968 -2.659 -7.283 C0.492 -7.968 3.708 -7.296 6.988 -5.267 C7.27 -5.09 7.44 -4.777 7.438 -4.439 L7.416 -1.115 C7.412 -0.846 7.187 -0.631 6.914 -0.635 L6.914 -0.635 L0.687 -0.68 C0.312 -0.684 0.004 -0.379 0 0 Z Z" fill="#040000" transform="matrix(1 0 0 1 368.8151 436.588)"/>
    <path d="M0 0 C0.077 4.397 -3.426 8.024 -7.823 8.101 L-9.27 8.126 C-13.667 8.203 -17.294 4.7 -17.371 0.303 L-17.451 -4.276 C-17.528 -8.673 -14.025 -12.3 -9.628 -12.377 L-8.181 -12.402 C-3.784 -12.479 -0.157 -8.976 -0.08 -4.579 Z M6.063 -3.618 C6.322 -11.026 0.526 -17.241 -6.882 -17.5 L-9.466 -17.59 C-16.874 -17.849 -23.089 -12.053 -23.348 -4.645 L-23.485 -0.717 C-23.743 6.691 -17.948 12.906 -10.54 13.165 L-7.956 13.255 C-0.548 13.514 5.667 7.718 5.926 0.31 Z Z" fill="#040000" transform="matrix(1 0 0 1 482.6468 441.6141)"/>
    <path d="M0 0 C6.205 0.015 6.412 3.627 6.412 8.687 C6.417 13.409 6.419 18.794 6.419 24.842 C6.419 25.09 6.621 25.292 6.87 25.292 L11.789 25.292 C12.052 25.292 12.265 25.082 12.269 24.819 C12.289 21.683 12.311 15.781 12.336 7.113 C12.365 -1.463 8.465 -5.126 0.015 -5.141 C-8.443 -5.163 -12.358 -1.507 -12.358 7.062 C-12.368 15.734 -12.368 21.638 -12.358 24.775 C-12.354 25.035 -12.145 25.244 -11.885 25.248 L-6.966 25.263 C-6.717 25.267 -6.512 25.068 -6.508 24.82 L-6.508 24.819 C-6.488 18.772 -6.466 13.385 -6.441 8.657 C-6.419 3.605 -6.197 -0.007 0 0 Z" fill="#040000" transform="matrix(1 0 0 1 420.7366 429.1643)"/>
    <path d="M0 0 C-1.162 1.98 -2.504 4.009 -4.026 6.087 C-4.118 6.21 -4.294 6.238 -4.417 6.149 C-4.487 6.099 -4.528 6.018 -4.528 5.932 L-4.587 -13.03 C-4.587 -13.34 -4.839 -13.592 -5.149 -13.592 L-9.581 -13.584 C-9.874 -13.584 -10.112 -13.343 -10.112 -13.045 L-10.112 -13.038 L-10.031 15.933 C-10.031 16.153 -9.853 16.332 -9.632 16.332 C-9.63 16.332 -9.627 16.332 -9.625 16.332 L-4.853 16.317 C-4.497 16.316 -4.163 16.14 -3.959 15.845 C-0.793 11.191 2.004 6.798 4.432 2.667 C5.594 0.692 6.936 -1.337 8.458 -3.42 C8.55 -3.543 8.725 -3.572 8.849 -3.483 C8.921 -3.431 8.963 -3.347 8.96 -3.258 L9.019 15.704 C9.019 16.014 9.271 16.266 9.581 16.266 C9.583 16.266 9.586 16.266 9.588 16.266 L14.02 16.251 C14.314 16.251 14.552 16.009 14.552 15.712 L14.552 15.712 L14.463 -13.259 C14.467 -13.479 14.292 -13.661 14.072 -13.666 C14.067 -13.666 14.062 -13.666 14.057 -13.666 L9.293 -13.651 C8.933 -13.652 8.596 -13.475 8.391 -13.178 C5.23 -8.519 2.433 -4.127 0 0 Z" fill="#040000" transform="matrix(1 0 0 1 628.5632 438.1466)"/>
    <path d="M0 0 C0.084 0 0.158 0.022 0.222 0.066 C0.251 0.086 0.283 0.148 0.318 0.251 C3.391 8.908 5.643 15.396 7.077 19.715 C7.179 20.024 7.468 20.233 7.793 20.232 L15.084 20.232 C15.251 20.232 15.387 20.097 15.387 19.93 L15.387 19.929 L15.387 -9.352 C15.387 -9.645 15.145 -9.883 14.847 -9.883 L10.275 -9.883 C9.969 -9.883 9.721 -9.635 9.721 -9.329 C9.716 -7.251 9.709 -0.414 9.699 11.184 C9.699 11.4 9.586 11.474 9.359 11.405 C9.294 11.387 9.242 11.334 9.219 11.265 L2.681 -9.13 C2.557 -9.513 2.222 -9.787 1.825 -9.832 C1.652 -9.847 1.049 -9.856 0.015 -9.861 C-1.019 -9.861 -1.62 -9.851 -1.788 -9.832 C-2.186 -9.791 -2.524 -9.519 -2.652 -9.137 L-9.241 11.243 C-9.264 11.312 -9.317 11.365 -9.381 11.383 C-9.608 11.452 -9.721 11.378 -9.721 11.161 C-9.701 -0.436 -9.691 -7.273 -9.691 -9.352 C-9.687 -9.658 -9.932 -9.909 -10.238 -9.913 C-10.24 -9.913 -10.243 -9.913 -10.245 -9.913 L-14.818 -9.92 C-15.116 -9.92 -15.357 -9.682 -15.357 -9.389 L-15.431 19.893 C-15.431 20.057 -15.3 20.191 -15.135 20.195 L-7.845 20.21 C-7.518 20.215 -7.226 20.009 -7.121 19.7 C-5.678 15.382 -3.41 8.899 -0.318 0.251 C-0.278 0.148 -0.244 0.086 -0.214 0.066 C-0.15 0.022 -0.079 0 0 0 Z" fill="#040000" transform="matrix(1 0 0 1 718.7186 434.2464)"/>
    <path d="M0 0 C-0.053 -0.141 0.018 -0.299 0.16 -0.352 C0.189 -0.363 0.22 -0.369 0.251 -0.369 L8.155 -0.414 C8.306 -0.415 8.429 -0.294 8.431 -0.143 C8.431 -0.109 8.425 -0.076 8.414 -0.044 L4.521 10.452 C4.472 10.595 4.316 10.671 4.174 10.622 C4.094 10.595 4.031 10.532 4.004 10.452 Z M4.255 -5.274 C0.995 -5.279 -0.913 -5.291 -1.47 -5.311 C-1.698 -5.316 -1.902 -5.459 -1.987 -5.673 L-4.476 -11.944 C-4.628 -12.324 -4.994 -12.573 -5.4 -12.572 L-10.127 -12.572 C-10.401 -12.57 -10.62 -12.347 -10.618 -12.073 C-10.618 -12.014 -10.607 -11.955 -10.585 -11.9 L0.901 17.004 C0.996 17.238 1.176 17.426 1.404 17.529 C1.433 17.539 2.369 17.546 4.21 17.551 C6.057 17.556 6.995 17.551 7.025 17.536 C7.251 17.435 7.431 17.25 7.527 17.019 L19.11 -11.848 C19.207 -12.104 19.08 -12.39 18.825 -12.488 C18.769 -12.509 18.711 -12.52 18.652 -12.521 L13.924 -12.535 C13.52 -12.537 13.154 -12.292 13.001 -11.915 L10.489 -5.651 C10.404 -5.437 10.2 -5.294 9.972 -5.289 C9.416 -5.269 7.51 -5.264 4.255 -5.274 Z" fill="#040000" transform="matrix(1 0 0 1 769.0077 436.913)"/>
    <path d="M0 0 C-1.182 1.994 -2.543 4.041 -4.085 6.138 C-4.174 6.265 -4.35 6.295 -4.476 6.205 C-4.553 6.151 -4.597 6.062 -4.595 5.969 L-4.595 -13.185 C-4.595 -13.499 -4.849 -13.754 -5.163 -13.754 L-9.64 -13.754 C-9.938 -13.754 -10.179 -13.509 -10.179 -13.208 L-10.179 -13.207 L-10.179 16.059 C-10.179 16.283 -9.997 16.465 -9.773 16.465 L-4.956 16.465 C-4.595 16.466 -4.256 16.29 -4.048 15.992 C-0.837 11.299 2.002 6.87 4.469 2.704 C5.651 0.714 7.013 -1.33 8.554 -3.427 C8.644 -3.554 8.819 -3.584 8.945 -3.494 C9.019 -3.441 9.064 -3.356 9.064 -3.265 L9.064 15.889 C9.064 16.203 9.318 16.458 9.632 16.458 L14.109 16.458 C14.407 16.458 14.648 16.213 14.648 15.911 L14.648 -13.355 C14.648 -13.58 14.466 -13.762 14.242 -13.762 L9.426 -13.762 C9.063 -13.761 8.723 -13.582 8.517 -13.281 C5.306 -8.593 2.467 -4.166 0 0 Z" fill="#040000" transform="matrix(1 0 0 1 823.5293 438.1022)"/>
    <path d="M0 0 C-0.004 0.29 0.231 0.528 0.524 0.532 C0.527 0.532 0.529 0.532 0.532 0.532 L5.429 0.532 C5.731 0.532 5.976 0.29 5.976 -0.007 C5.976 -0.01 5.976 -0.012 5.976 -0.015 C5.887 -8.49 5.872 -14.545 5.932 -18.179 C5.991 -21.791 5.614 -25.181 3.043 -27.671 C0.244 -30.382 -5.311 -30.352 -8.857 -29.111 C-11.767 -28.092 -13.237 -24.103 -13.71 -21.111 C-13.729 -20.979 -13.645 -20.856 -13.518 -20.831 L-8.185 -19.678 C-8.116 -19.666 -8.051 -19.707 -8.039 -19.772 C-8.038 -19.777 -8.037 -19.783 -8.037 -19.789 C-7.904 -23.039 -6.651 -24.738 -4.277 -24.886 C-1.33 -25.071 0 -23.143 0.007 -20.299 C0.037 -12.38 0.034 -5.614 0 0 Z" fill="#040000" transform="matrix(1 0 0 1 876.6475 453.9321)"/>
    <path d="M0 0 L5.097 0 C5.297 0 5.459 -0.162 5.459 -0.362 L5.459 -29.732 C5.459 -29.932 5.297 -30.094 5.097 -30.094 L0 -30.094 C-0.2 -30.094 -0.362 -29.932 -0.362 -29.732 L-0.362 -0.362 C-0.362 -0.162 -0.2 0 0 0 Z" fill="#040000" transform="matrix(1 0 0 1 910.3681 454.4787)"/>
    <path d="M0 0 C-1.177 1.989 -2.534 4.031 -4.07 6.124 C-4.16 6.25 -4.335 6.28 -4.461 6.19 C-4.536 6.138 -4.58 6.052 -4.58 5.961 L-4.595 -13.148 C-4.599 -13.46 -4.852 -13.71 -5.163 -13.71 L-9.632 -13.71 C-9.927 -13.706 -10.164 -13.462 -10.164 -13.163 L-10.142 16.037 C-10.142 16.261 -9.96 16.443 -9.736 16.443 L-4.927 16.436 C-4.568 16.434 -4.231 16.255 -4.026 15.955 C-0.825 11.272 2.004 6.853 4.462 2.696 C5.639 0.707 6.995 -1.335 8.532 -3.427 C8.621 -3.554 8.797 -3.584 8.923 -3.494 C8.997 -3.442 9.042 -3.356 9.042 -3.265 L9.056 15.845 C9.056 16.159 9.311 16.413 9.625 16.413 L14.094 16.406 C14.389 16.402 14.626 16.158 14.626 15.859 L14.604 -13.34 C14.6 -13.562 14.419 -13.739 14.197 -13.739 L9.389 -13.739 C9.03 -13.738 8.693 -13.558 8.487 -13.259 C5.286 -8.576 2.457 -4.156 0 0 Z" fill="#040000" transform="matrix(1 0 0 1 953.7062 438.0727)"/>
    <path d="M0 0 L0.029 -6.929 C0.034 -7.137 0.205 -7.302 0.413 -7.298 L0.414 -7.298 L8.871 -7.254 C11.032 -7.24 12.775 -5.776 12.764 -3.981 L12.764 -2.8 C12.754 -1.005 10.993 0.441 8.83 0.428 C8.829 0.428 8.828 0.428 8.827 0.428 L0.369 0.384 C0.161 0.38 -0.004 0.208 0 0 Z M11.472 -11.486 C11.312 -11.519 11.208 -11.674 11.24 -11.834 C11.258 -11.924 11.316 -12 11.398 -12.04 C12.929 -12.809 14.207 -13.909 15.231 -15.342 C16.965 -17.775 19.048 -20.885 21.481 -24.672 C21.509 -24.712 21.5 -24.767 21.46 -24.795 C21.445 -24.807 21.426 -24.813 21.407 -24.812 L14.825 -24.812 C14.7 -24.812 14.584 -24.751 14.515 -24.65 C13.274 -22.832 10.967 -19.558 7.594 -14.825 C5.503 -11.893 3.612 -12.373 0.428 -12.269 C0.241 -12.261 0.082 -12.41 0.074 -12.602 C0.074 -12.607 0.074 -12.612 0.074 -12.617 L0.074 -24.214 C0.074 -24.565 -0.207 -24.849 -0.554 -24.849 L-5.296 -24.849 C-5.582 -24.849 -5.813 -24.618 -5.813 -24.332 L-5.813 4.905 C-5.813 5.076 -5.674 5.215 -5.503 5.215 C-2.194 5.23 2.435 5.237 8.384 5.237 C12.269 5.237 15.542 4.861 17.558 1.596 C18.42 0.207 18.839 -1.411 18.814 -3.258 C18.75 -7.744 16.302 -10.487 11.472 -11.486 Z" fill="#040000" transform="matrix(1 0 0 1 520.6279 449.1972)"/>
    <path d="M0 0 C-0.086 -0.225 0.027 -0.477 0.252 -0.562 C0.301 -0.581 0.354 -0.591 0.406 -0.591 L7.837 -0.606 C8.078 -0.609 8.276 -0.417 8.279 -0.176 C8.28 -0.121 8.271 -0.066 8.251 -0.015 L4.55 10.053 C4.471 10.281 4.222 10.4 3.995 10.321 C3.872 10.278 3.775 10.182 3.73 10.061 Z M4.122 17.307 C5.964 17.307 6.899 17.302 6.929 17.292 C7.156 17.19 7.336 17.002 7.431 16.768 L19.006 -12.07 C19.108 -12.319 18.985 -12.604 18.732 -12.706 C18.676 -12.729 18.616 -12.741 18.556 -12.742 L13.828 -12.757 C13.424 -12.759 13.058 -12.513 12.905 -12.136 L10.393 -5.88 C10.31 -5.663 10.106 -5.517 9.876 -5.511 C9.32 -5.496 7.414 -5.491 4.159 -5.496 C0.909 -5.501 -0.997 -5.513 -1.559 -5.533 C-1.787 -5.538 -1.99 -5.68 -2.076 -5.895 L-4.558 -12.166 C-4.709 -12.546 -5.075 -12.795 -5.481 -12.794 L-10.208 -12.794 C-10.482 -12.792 -10.703 -12.572 -10.702 -12.302 C-10.702 -12.24 -10.69 -12.179 -10.667 -12.122 L0.812 16.761 C0.909 16.992 1.088 17.177 1.315 17.278 C1.344 17.292 2.28 17.302 4.122 17.307 Z" fill="#040000" transform="matrix(1 0 0 1 574.6324 437.1124)"/>
    <path d="M0 0 C-0.395 0.049 -0.778 0.177 -1.125 0.378 C-5.606 2.966 -12.906 7.257 -23.025 13.251 C-24.97 14.403 -26.383 15.01 -27.262 15.072 C-29.595 15.242 -31.015 14.979 -33.223 13.689 C-34.118 13.166 -36.114 11.98 -39.212 10.129 C-60.826 -2.762 -78.844 -13.656 -97.046 -24.703 C-101.171 -27.208 -104.212 -28.743 -106.17 -29.309 C-110.796 -30.643 -115.405 -30.663 -119.997 -29.369 C-121.614 -28.914 -124.11 -27.711 -127.485 -25.759 C-133.368 -22.359 -139.168 -18.957 -144.885 -15.551 C-149.661 -12.708 -154.235 -9.985 -158.605 -7.381 C-161.316 -5.771 -163.242 -4.403 -164.382 -3.278 C-167.945 0.22 -170.33 4.451 -171.538 9.415 C-172.023 11.413 -172.249 14.648 -172.216 19.12 C-172.157 26.595 -172.152 60.892 -172.202 122.012 C-172.205 124.92 -172.04 127.185 -171.708 128.808 C-170.63 134.094 -168.277 138.554 -164.65 142.187 C-163.128 143.706 -160.743 145.393 -157.494 147.25 C-152.778 149.942 -148.679 152.229 -144.285 154.76 C-136.558 159.211 -130.214 162.858 -125.253 165.701 C-121.74 167.717 -118.998 169.016 -117.028 169.597 C-111.537 171.22 -106.544 170.676 -101.237 168.896 C-100.063 168.503 -98.031 167.447 -95.142 165.729 C-77.802 155.429 -68.272 149.652 -58.161 143.663 C-57.233 143.113 -44.324 135.409 -19.433 120.55 C-14.906 117.846 -12.049 115.883 -10.862 114.663 C-5.445 109.103 -3.449 100.771 -5.837 93.289 C-7.927 86.742 -12.032 82.091 -18.151 79.337 C-23.829 76.783 -29.539 76.931 -35.284 79.78 C-36.397 80.33 -38.74 81.692 -42.315 83.865 C-46.783 86.58 -53.449 90.361 -56.727 92.339 C-79.165 105.869 -102.064 119.536 -125.424 133.34 C-126.558 134.013 -127.386 134.402 -127.909 134.506 C-131.897 135.309 -134.414 133.114 -134.414 129.043 C-134.417 118.101 -134.423 76.144 -134.433 3.172 C-134.433 -1.213 -130.089 -2.859 -126.549 -0.821 C-125.408 -0.163 -119.39 3.154 -108.494 9.129 C-89.059 19.785 -71.413 29.569 -55.556 38.479 C-52.203 40.366 -49.907 41.654 -48.668 42.343 C-40.425 46.919 -24.843 55.69 -1.923 68.655 C-0.037 69.724 2.112 69.996 3.711 68.42 C4.578 67.565 5.012 66.603 5.012 65.533 C4.996 35.092 5.002 15.536 5.03 6.865 C5.035 5.496 5.118 3.804 4.717 2.633 C4.013 0.567 2.441 -0.31 0 0 Z" fill="#FFA131" transform="matrix(1 0 0 1 255.6464 455.5873)"/>
    <path d="M0 0 C-10.489 -5.961 -25.422 -14.445 -39.143 -22.093 C-40.637 -22.926 -41.794 -23.331 -42.615 -23.306 C-44.001 -23.269 -45.2 -22.696 -46.211 -21.586 C-47.474 -20.199 -47.34 -18.055 -47.336 -15.837 C-47.305 1.262 -47.301 26.503 -47.322 59.886 C-47.327 63.182 -44.846 65.354 -41.554 64.874 C-41.016 64.797 -40.308 64.521 -39.429 64.044 C-38.178 63.368 -33.75 60.779 -26.146 56.276 C-5.651 44.141 5.296 37.645 6.694 36.787 C9.956 34.783 12.662 33.18 14.813 31.978 C18.53 29.904 22.259 27.46 26.4 25.178 C28.668 23.924 29.751 22.054 29.65 19.567 C29.544 17.059 28.078 15.994 25.828 14.703 C14.007 7.935 7.268 4.093 5.611 3.177 C5.03 2.854 3.16 1.795 0 0 Z" fill="#00A6FC" transform="matrix(1 0 0 1 181.7449 500.0739)"/>
  </g>
</svg>
